<svg version="1.1" xmlns="http://www.w3.org/2000/svg" width="99" height="62">
<path d="M0 0 C3.42580736 1.28847035 6.44840192 3.02734612 9.5625 4.9375 C10.36751953 5.40607422 11.17253906 5.87464844 12.00195312 6.35742188 C17.69834184 9.69834184 17.69834184 9.69834184 19 11 C19.2475 10.0925 19.495 9.185 19.75 8.25 C21.2845409 4.26019366 23.16127596 1.91936202 27 0 C32.6708904 -0.63009893 36.03777381 -0.2863846 41.00390625 2.5625 C41.96369385 3.107854 42.92348145 3.65320801 43.91235352 4.21508789 C44.93127686 4.80410889 45.9502002 5.39312988 47 6 C48.57575806 6.88449829 48.57575806 6.88449829 50.18334961 7.78686523 C53.4732428 9.64124047 56.73752834 11.53535905 60 13.4375 C61.11761719 14.06720703 62.23523438 14.69691406 63.38671875 15.34570312 C72.38520857 20.62648153 72.38520857 20.62648153 74.375 24.53515625 C75.15540218 28.86151084 74.91414478 31.02838075 73 35 C70.67692397 36.90152568 68.70850788 38.253636 66.125 39.6875 C64.67545648 40.53199487 63.22625395 41.37707524 61.77734375 42.22265625 C61.00503418 42.66496582 60.23272461 43.10727539 59.43701172 43.56298828 C56.86900022 45.07724551 54.37536822 46.67931887 51.87890625 48.30859375 C50.14848266 49.41413318 48.41801461 50.51960304 46.6875 51.625 C45.88908691 52.15826904 45.09067383 52.69153809 44.26806641 53.2409668 C38.22824044 57.00889185 33.08934813 58.02395189 26 57 C22.9375 55.4375 22.9375 55.4375 21 53 C20.28791022 50.68012564 19.61623151 48.34715735 19 46 C18.53102295 46.29769287 18.0620459 46.59538574 17.57885742 46.90209961 C15.4504782 48.2505383 13.31903901 49.59406226 11.1875 50.9375 C10.08051758 51.64036133 10.08051758 51.64036133 8.95117188 52.35742188 C8.23896484 52.80537109 7.52675781 53.25332031 6.79296875 53.71484375 C6.1383667 54.12855225 5.48376465 54.54226074 4.80932617 54.96850586 C0.14706493 57.62645401 -4.78612796 57.5913497 -10 57 C-13.39952622 55.15858996 -14.61077042 53.92234782 -16.10620117 50.37866211 C-17.15827382 46.4017068 -17.30570016 42.64874496 -17.30078125 38.56640625 C-17.30506638 37.77024399 -17.3093515 36.97408173 -17.31376648 36.15379333 C-17.31948558 34.47713162 -17.32002797 32.80044511 -17.31567383 31.1237793 C-17.31251378 28.57362114 -17.33600255 26.02462443 -17.36132812 23.47460938 C-17.36360154 21.83854312 -17.36430442 20.20247377 -17.36328125 18.56640625 C-17.372491 17.81202774 -17.38170074 17.05764923 -17.39118958 16.28041077 C-17.34026401 10.38667211 -16.43231067 5.44483383 -12.10327148 1.09350586 C-8.16003851 -0.95660911 -4.31309301 -0.66361304 0 0 Z M-8.62133789 8.53417969 C-10.52663839 11.94192451 -10.42996723 15.10364939 -10.3984375 18.90625 C-10.40130768 19.66796509 -10.40417786 20.42968018 -10.40713501 21.21447754 C-10.40917234 22.82154079 -10.40366558 24.42862902 -10.39111328 26.03564453 C-10.37505377 28.4917764 -10.39097196 30.94626289 -10.41015625 33.40234375 C-10.40817376 34.96614946 -10.40432996 36.52995414 -10.3984375 38.09375 C-10.40451019 38.82613892 -10.41058289 39.55852783 -10.4168396 40.31311035 C-10.35944987 44.48550864 -9.96611514 46.97202943 -7 50 C-1.50614978 49.52592687 2.03502829 48.15446793 6.703125 45.25390625 C7.3075946 44.88273178 7.91206421 44.51155731 8.53485107 44.12913513 C10.44700944 42.95131497 12.34840003 41.7572743 14.25 40.5625 C15.54099684 39.76389013 16.8326583 38.96635361 18.125 38.16992188 C22.4506338 35.4974749 26.7689956 32.8206696 31 30 C31 29.01 31 28.02 31 27 C29.32987423 25.58276554 29.32987423 25.58276554 27.08203125 24.36328125 C26.24551025 23.87182617 25.40898926 23.38037109 24.54711914 22.87402344 C23.64469482 22.3587207 22.74227051 21.84341797 21.8125 21.3125 C19.97339725 20.24184863 18.13485612 19.17023198 16.296875 18.09765625 C15.39259766 17.57316895 14.48832031 17.04868164 13.55664062 16.50830078 C11.32456272 15.19147713 9.13180937 13.8363313 6.953125 12.43359375 C6.37071045 12.06000732 5.7882959 11.6864209 5.18823242 11.30151367 C3.66473043 10.31612201 2.14661504 9.32241624 0.62890625 8.328125 C-2.90061161 6.54501048 -5.549138 5.62713194 -8.62133789 8.53417969 Z M27 9 C26.20817352 13.10129319 26.20817352 13.10129319 27 17 C29.72844477 19.51814962 32.75466732 21.22702997 36 23 C37 24 37 24 37.1328125 25.9609375 C37.13023438 26.75757812 37.12765625 27.55421875 37.125 28.375 C37.12757812 29.16648437 37.13015625 29.95796875 37.1328125 30.7734375 C37 33 37 33 36 36 C34.3523962 36.71247732 32.68236471 37.37400383 31 38 C28.61557197 39.05893971 28.61557197 39.05893971 27 41 C26.49992206 44.54213985 26.49992206 44.54213985 27 48 C27.66 48.66 28.32 49.32 29 50 C34.49061182 49.75875091 38.08117781 48.12579253 42.703125 45.25390625 C43.3075946 44.88273178 43.91206421 44.51155731 44.53485107 44.12913513 C46.44700944 42.95131497 48.34840003 41.7572743 50.25 40.5625 C51.54099684 39.76389013 52.8326583 38.96635361 54.125 38.16992188 C58.4506338 35.4974749 62.7689956 32.8206696 67 30 C66.97983948 28.12024956 66.97983948 28.12024956 66 26 C63.89989671 24.47350645 61.91807386 23.21542058 59.6640625 21.9609375 C59.02890717 21.59400787 58.39375183 21.22707825 57.73934937 20.84902954 C55.70791652 19.67888409 53.6669306 18.52671039 51.625 17.375 C50.25712772 16.59234142 48.88993133 15.80850032 47.5234375 15.0234375 C45.5965926 13.91660828 43.66893801 12.8116253 41.73574829 11.71591187 C39.09275737 10.21711478 36.52990675 8.6866045 34 7 C30.02767735 6.56178998 30.02767735 6.56178998 27 9 Z " fill="#5B55FB" transform="translate(18,2)"/>
<path d="M0 0 C2.44360352 1.09375 2.44360352 1.09375 5.00390625 2.5625 C5.96369385 3.107854 6.92348145 3.65320801 7.91235352 4.21508789 C8.93127686 4.80410889 9.9502002 5.39312988 11 6 C12.05050537 6.58966553 13.10101074 7.17933105 14.18334961 7.78686523 C17.4732428 9.64124047 20.73752834 11.53535905 24 13.4375 C25.11761719 14.06720703 26.23523438 14.69691406 27.38671875 15.34570312 C36.38520857 20.62648153 36.38520857 20.62648153 38.375 24.53515625 C39.15540218 28.86151084 38.91414478 31.02838075 37 35 C34.67692397 36.90152568 32.70850788 38.253636 30.125 39.6875 C28.67545648 40.53199487 27.22625395 41.37707524 25.77734375 42.22265625 C25.00503418 42.66496582 24.23272461 43.10727539 23.43701172 43.56298828 C20.86900022 45.07724551 18.37536822 46.67931887 15.87890625 48.30859375 C14.14848266 49.41413318 12.41801461 50.51960304 10.6875 51.625 C9.88908691 52.15826904 9.09067383 52.69153809 8.26806641 53.2409668 C2.25522071 56.99206031 -2.93534152 58.09050799 -10 57 C-13.61691275 54.90219061 -14.68291409 53.95125774 -16 50 C-14.37660195 48.29115995 -12.70680947 46.62553283 -11 45 C-10.34 45 -9.68 45 -9 45 C-8.34 46.32 -7.68 47.64 -7 49 C-1.5956567 48.53717463 2.22530566 47.09688762 6.73828125 44.21875 C7.34512253 43.84520386 7.95196381 43.47165771 8.57719421 43.08679199 C10.49611009 41.90228556 12.40431098 40.70169355 14.3125 39.5 C15.61193744 38.69289399 16.91206212 37.88689333 18.21289062 37.08203125 C20.58432884 35.61428914 22.95043626 34.13915157 25.3137207 32.65820312 C28 31 28 31 30 30 C30 29.01 30 28.02 30 27 C27.94151109 25.52816794 25.95958159 24.28987651 23.76171875 23.05859375 C23.12514847 22.69024918 22.48857819 22.3219046 21.8327179 21.94239807 C19.79020235 20.76349072 17.73923005 19.60028303 15.6875 18.4375 C13.64860176 17.26771128 11.61149113 16.09485195 9.57441711 14.92189026 C8.3049093 14.19249984 7.03395092 13.46562704 5.76139832 12.74156189 C3.11180676 11.2326425 0.53871482 9.69247655 -2 8 C-4.62531524 7.83286431 -4.62531524 7.83286431 -7 8 C-7.66 9.32 -8.32 10.64 -9 12 C-13.75 10.125 -13.75 10.125 -16 9 C-15.4568634 5.19804378 -13.84334437 3.49869657 -11 1 C-7.4407795 -0.77961025 -3.83293497 -0.59938011 0 0 Z " fill="#A360FD" transform="translate(54,2)"/>
<path d="M0 0 C0 1.32 0 2.64 0 4 C-1.53125 5.484375 -1.53125 5.484375 -3.5 6.75 C-4.47453125 7.39195313 -4.47453125 7.39195313 -5.46875 8.046875 C-5.9740625 8.36140625 -6.479375 8.6759375 -7 9 C-7.3125 6.1875 -7.3125 6.1875 -7 3 C-4.61107499 1.11400657 -3.08148442 0 0 0 Z " fill="#5241C5" transform="translate(45,43)"/>
<path d="M0 0 C4.75 1.875 4.75 1.875 7 3 C7 4.32 7 5.64 7 7 C4.03824877 6.38722388 2.61941217 5.74627478 0 4 C0 2.68 0 1.36 0 0 Z " fill="#6E43C0" transform="translate(38,11)"/>
</svg>